<svg width="1046" height="638.58364" xmlns="http://www.w3.org/2000/svg" data-name="Layer 1">
 <title>ready_to_print</title>

 <g>
  <title>Layer 1</title>
  <rect y="25.32186" width="281.41977" height="281.41977" fill="#3f3d56" id="svg_5"/>
  <path d="m281.41977,95.33772l0,6.4591a29.20519,29.20519 0 0 1 -10.03614,-11.3755c-3.74665,-7.66268 -3.628,-16.49523 -3.50929,-25.03951c0.13566,-10.15483 0.27121,-19.73331 -6.17091,-25.972c-7.08634,-6.84908 -18.4279,-5.88275 -29.39644,-4.95025c-1.28845,0.10172 -2.57689,0.22029 -3.84837,0.322c-11.00248,0.83078 -23.25956,-1.94953 -29.21,-9.4597l7.42538,0c5.44195,3.6618 13.76593,4.95025 21.41164,4.3738c1.23764,-0.08475 2.50912,-0.20343 3.78059,-0.30514c11.545,-0.9832 24.63265,-2.10216 33.36349,6.35737c8.03571,7.7645 7.88308,18.91961 7.73056,29.70169c-0.11868,7.951 -0.22039,16.15626 3.00072,22.73392a23.24979,23.24979 0 0 0 5.45877,7.15422z" fill="#6c63ff" id="svg_6"/>
  <path d="m281.41977,140.00882l0,7.56108a32.155,32.155 0 0 0 -4.13653,-4.45865c-8.7477,-7.71359 -21.30993,-9.40889 -33.44824,-11.07025c-1.57661,-0.20354 -3.11939,-0.42383 -4.66207,-0.64423c-19.68251,-2.83122 -31.88859,-9.59545 -37.2966,-20.63187c-3.74665,-7.66268 -3.628,-16.49523 -3.50928,-25.03951c0.13565,-10.15483 0.2712,-19.73331 -6.17092,-25.972c-7.08634,-6.84908 -18.4279,-5.88275 -29.39644,-4.95025c-1.28844,0.10171 -2.57689,0.22029 -3.84836,0.322c-14.13885,1.068 -30.36288,-3.83129 -32.58372,-17.07158c-0.7628,-4.5435 0.373,-8.71387 2.05135,-12.73172l5.56064,0c-1.8649,4.03482 -3.25505,7.934 -2.59386,11.88407c1.67833,10.10392 15.27467,13.73189 27.19257,12.83333c1.23764,-0.08475 2.50911,-0.20343 3.78059,-0.30514c11.545,-0.9832 24.63265,-2.10216 33.36349,6.35737c8.0357,7.7645 7.88308,18.9196 7.73056,29.70169c-0.11868,7.951 -0.2204,16.15625 3.00071,22.73392c4.61117,9.426 15.54587,15.2577 33.44824,17.83459c1.5257,0.2204 3.06849,0.44079 4.61116,0.64422c12.88434,1.74621 26.22634,3.56009 36.14381,12.29093q0.3815,0.33061 0.7629,0.712z" fill="#6c63ff" id="svg_7"/>
  <path d="m281.41977,267.46146l0,10.44311c-6.12,-6.51 -11.23984,-15.44416 -15.156,-26.61623c-0.83068,-2.37336 -1.62753,-4.79773 -2.42427,-7.222c-4.39087,-13.27412 -8.93426,-26.98914 -19.75028,-35.75381c-11.562,-9.35809 -28.125,-11.42631 -44.14557,-13.42685c-2.05135,-0.25423 -4.1026,-0.50857 -6.137,-0.77977c-25.972,-3.44151 -42.06038,-11.62973 -49.19763,-25.02264c-4.95025,-9.30718 -4.79773,-20.02149 -4.64511,-30.37975c0.18646,-12.30789 0.373,-23.93762 -8.13742,-31.4987c-9.34112,-8.307 -24.31064,-7.13725 -38.7715,-6.00132c-1.71227,0.13555 -3.40757,0.2712 -5.06893,0.38988c-18.66526,1.28845 -40.07691,-4.6451 -42.99288,-20.69964c-1.441,-7.86612 2.23781,-14.83388 5.781,-21.58114c2.03438,-3.86533 3.96694,-7.5441 4.95025,-11.32459c2.06832,-7.78147 -0.4916,-16.54614 -6.17092,-22.66615l8.307,0a29.86869,29.86869 0 0 1 4.39077,24.12408c-1.16966,4.42471 -3.33969,8.56125 -5.44185,12.56223c-3.23808,6.137 -6.27263,11.93488 -5.20458,17.86843c2.23781,12.24 20.15714,16.64785 35.8725,15.56284c1.64449,-0.11869 3.32283,-0.25434 5.00116,-0.37292c15.22386,-1.2037 32.482,-2.54295 44.01,7.71359c10.59562,9.4089 10.39219,22.93736 10.18877,36.00816c-0.13566,9.64626 -0.28828,19.59766 3.95,27.58256c6.08617,11.40933 20.53016,18.49567 44.14567,21.63194c2.00044,0.2713 4.03483,0.52554 6.0691,0.77987c17.02088,2.11913 34.60113,4.306 47.67193,14.90165c12.257,9.93454 17.08855,24.4971 21.73365,38.585c0.79685,2.4074 1.59359,4.78076 2.4074,7.13725a80.35091,80.35091 0 0 0 8.76474,18.05492z" fill="#6c63ff" id="svg_8"/>
  <path d="m0,138.95782c7.73057,9.358 24.12412,12.81647 38.82237,11.79929c1.66139,-0.11868 3.35669,-0.2543 5.06894,-0.38992c14.46091,-1.13585 29.43041,-2.30561 38.77151,6.00136c8.51041,7.561 8.32392,19.19079 8.13744,31.49867c-0.15258,10.35828 -0.30515,21.07258 4.64512,30.37977c7.13721,13.39287 23.22561,21.58117 49.1976,25.02263c2.03436,0.27125 4.08567,0.52554 6.137,0.77984c16.02058,2.00045 32.58366,4.06871 44.14561,13.42677c10.816,8.7647 15.35941,22.47968 19.75024,35.75387c0.79679,2.42428 1.59358,4.84856 2.42428,7.222c0.76288,2.18694 1.57663,4.27216 2.42428,6.28956l7.25588,0c-1.27148,-2.76334 -2.35647,-5.52667 -3.28888,-8.17134c-0.81375,-2.35647 -1.61054,-4.72989 -2.40733,-7.13721c-4.64512,-14.08795 -9.47672,-28.65057 -21.73374,-38.585c-13.07076,-10.59562 -30.651,-12.78256 -47.67183,-14.90168c-2.03436,-0.2543 -4.06872,-0.50859 -6.06918,-0.77984c-23.61552,-3.13631 -38.05948,-10.22266 -44.1456,-21.632c-4.23825,-7.98486 -4.08568,-17.93627 -3.95,-27.58253c0.20343,-13.07076 0.40687,-26.59925 -10.18876,-36.00816c-11.528,-10.25657 -28.78619,-8.91728 -44.01,-7.71362c-1.67835,0.11867 -3.35669,0.2543 -5.00113,0.373c-15.71543,1.085 -33.63475,-3.32279 -35.87255,-15.56286c-1.068,-5.93355 1.96655,-11.73147 5.20457,-17.86846c2.10217,-4.0009 4.27216,-8.13744 5.44191,-12.56217c3.18717,-12.10444 -2.18693,-25.51426 -13.08771,-32.838l0,8.307c5.9505,6.137 8.663,15.10513 6.56081,23.073c-0.98327,3.78052 -2.91592,7.45932 -4.95028,11.32461c-0.54249,1.03413 -1.085,2.05131 -1.61053,3.1024l-0.00004,27.37902z" fill="#6c63ff" id="svg_9"/>
  <path d="m124.48585,306.74163l-7.03543,0c-0.373,-1.102 -0.72907,-2.22084 -1.102,-3.33979c-4.39088,-13.27412 -8.93427,-26.98915 -19.75029,-35.75382c-11.562,-9.35809 -28.125,-11.4263 -44.14557,-13.42685c-2.05135,-0.25423 -4.1026,-0.50857 -6.137,-0.77977c-22.92044,-3.03465 -38.16117,-9.78191 -46.31556,-20.53005l0,-16.86826a31.99435,31.99435 0 0 0 3.13626,9.66323c6.08618,11.40934 20.53016,18.49568 44.14568,21.63194c2.00044,0.27131 4.03482,0.52554 6.0691,0.77988c17.02087,2.11912 34.60112,4.306 47.67192,14.90164c12.257,9.93454 17.08855,24.49711 21.73366,38.58505c0.57644,1.72923 1.13592,3.4415 1.72923,5.1368z" fill="#6c63ff" id="svg_10"/>
  <rect x="381.44246" y="25.32186" width="281.41977" height="281.41977" fill="#3f3d56" id="svg_11"/>
  <path d="m517.06645,45.66546a89.85757,89.85757 0 0 1 -135.624,77.3226l0,-97.66624l133.30145,0a89.3085,89.3085 0 0 1 2.32255,20.34364z" fill="#6c63ff" id="svg_12"/>
  <circle cx="589.96434" cy="101.61035" r="54.24959" fill="#6c63ff" id="svg_13"/>
  <circle cx="467.90276" cy="216.89074" r="38.9919" fill="#6c63ff" id="svg_14"/>
  <path d="m662.86224,260.62946l0,46.11217l-55.79224,0a38.99494,38.99494 0 0 1 55.79228,-46.11217l-0.00004,0z" fill="#6c63ff" id="svg_15"/>
  <circle cx="566.23015" cy="215.19544" r="10.1718" fill="#6c63ff" id="svg_16"/>
  <rect x="764.58023" y="25.32186" width="281.41977" height="281.41977" fill="#3f3d56" id="svg_17"/>
  <path d="m901.89951,25.32182l0,115.28043l-137.31928,0l0,6.7812l144.10048,0l0,-122.06163l-6.7812,0z" fill="#6c63ff" id="svg_18"/>
  <path d="m1034.3533,306.74163l11.6467,-16.56311l0,-11.78235l-19.93674,28.34546l8.29004,0zm-47.29891,-121.34959l-62.404,88.74891l46.36651,32.60068l11.78225,0l-48.70593,-34.24507l54.60565,-77.66169l57.30113,40.29731l0,-8.29l-58.94561,-41.45014z" fill="#6c63ff" id="svg_19"/>
  <path d="m883.25122,174.1522l-35.95735,35.95734l35.95735,35.95728l35.95734,-35.95725l-35.95734,-35.95737zm-26.37887,35.95734l26.37887,-26.37886l26.37886,26.37886l-26.37886,26.37886l-26.37887,-26.37886z" fill="#6c63ff" id="svg_20"/>
  <circle cx="137.93407" cy="25.54335" r="25.54335" fill="#f2f2f2" id="svg_21"/>
  <circle cx="532.57875" cy="25.54335" r="25.54335" fill="#f2f2f2" id="svg_22"/>
  <circle cx="909.3431" cy="25.54335" r="25.54335" fill="#f2f2f2" id="svg_23"/>
  <circle cx="506.39683" cy="150.06716" r="24.26618" fill="#ffb8b8" id="svg_24"/>
  <path d="m493.62515,161.56166s6.38584,33.20635 3.8315,39.59219s35.76069,-2.55434 35.76069,-2.55434s-7.663,-33.20635 -6.38584,-40.86935s-33.20635,3.8315 -33.20635,3.8315z" fill="#ffb8b8" id="svg_25"/>
  <polygon points="451.479 276.507 454.033 310.99 466.71 365.146 470.636 379.957 477.022 356.968 470.636 304.604 468.467 281.029 451.479 276.507" fill="#ffb8b8" id="svg_26"/>
  <path d="m585.5812,271.39805l0,35.76068s-3.83151,45.978 -11.49451,57.47253s-10.21734,-45.978 -10.21734,-45.978l6.00472,-42.14652l15.70713,-5.10869z" fill="#ffb8b8" id="svg_27"/>
  <path d="m471.91331,382.5116s-6.38584,7.663 -1.27717,85.57021s-2.55433,134.10256 14.04886,134.10256c0,0 -5.10867,16.60318 8.94017,17.88034s20.43468,2.55434 21.71185,-1.27716s3.8315,-21.71185 0,-21.71185c0,0 0,5.10867 2.55433,-15.326s2.55434,-117.49939 8.94017,-130.27107l20.43466,47.25519s0,21.71185 3.8315,31.92918s10.21734,68.967 10.21734,68.967l-1.27717,8.94017s30.652,5.10867 31.92918,0s1.27717,-12.77167 0,-15.326s-1.27716,-2.55433 1.27717,-7.663s2.55433,-8.94017 1.27717,-12.77168s-1.27717,-86.84737 -1.27717,-86.84737s-2.55433,-100.89622 -17.88034,-106.00488s-103.45055,2.55436 -103.45055,2.55436z" fill="#2f2e41" id="svg_28"/>
  <path d="m488.51648,609.84738l-10.21733,17.88034s-15.9646,-5.74726 -12.77168,8.94017c27.4591,1.91575 46.61661,-0.63859 46.61661,-0.63859s6.38583,2.55434 7.663,-1.27716s-3.19292,-17.24176 -7.02442,-17.24176s-24.26618,-7.663 -24.26618,-7.663z" fill="#2f2e41" id="svg_29"/>
  <path d="m562.59219,604.73871s-10.21734,22.989 -6.38584,24.26617s38.315,6.38584 40.86935,7.663s15.326,2.55433 16.60318,-5.10867s-6.38584,-10.21734 -6.38584,-10.21734s-14.04884,-2.55433 -17.88034,-15.326s-26.82051,-1.27716 -26.82051,-1.27716z" fill="#2f2e41" id="svg_30"/>
  <path d="m535.77167,194.76801s-34.48351,-6.38584 -42.14652,0s-39.59215,19.15751 -39.59215,25.54335s16.60317,68.967 16.60317,68.967s-8.94017,94.51038 0,97.06471s24.26618,-5.10867 42.14652,3.8315s68.967,-7.663 68.967,-7.663s-19.1575,-81.73871 -14.04884,-97.06471s8.94015,-67.68984 8.94015,-67.68984s-21.71182,-22.98901 -40.86933,-22.98901z" fill="#8985a8" id="svg_31"/>
  <path d="m462.97314,216.47982l-8.94017,2.55434s-19.15751,60.02686 -11.49451,62.5812s29.37485,7.663 31.92918,7.663s-11.4945,-72.79854 -11.4945,-72.79854z" fill="#8985a8" id="svg_32"/>
  <path d="m556.20635,210.09402l20.43468,7.663s26.82051,49.80953 20.43467,56.19536s-34.48351,12.77167 -34.48351,12.77167l-6.38584,-76.63003z" fill="#8985a8" id="svg_33"/>
  <path d="m505.65976,120.09493a13.71573,13.71573 0 0 0 -6.07019,0.268a15.82759,15.82759 0 0 0 -4.31392,2.82985a50.4916,50.4916 0 0 1 -7.37585,4.88674c-2.06956,1.12349 -4.29419,2.16336 -5.739,4.0229a12.21131,12.21131 0 0 0 -1.61977,3.06606a36.74031,36.74031 0 0 0 -1.93172,19.99594a9.191,9.191 0 0 0 0.85074,2.74569c1.3274,2.44565 4.2592,3.40946 6.72893,4.6915c4.689,2.43407 8.24343,6.5327 12.0893,10.15493a23.63371,23.63371 0 0 0 4.77654,3.68109c5.48669,2.99147 12.19306,2.01557 18.35208,0.95775a3.30733,3.30733 0 0 0 3.30082,-3.33887l4.86152,-21.86575a35.67314,35.67314 0 0 0 1.246,-9.94447c-0.33919,-5.30791 -3.21279,-12.66061 -7.10829,-16.431c-4.53895,-4.39317 -12.1141,-5.09224 -18.04719,-5.72036z" fill="#2f2e41" id="svg_34"/>
 </g>
</svg>